<svg width="1696" height="779" xmlns="http://www.w3.org/2000/svg" xmlns:xlink="http://www.w3.org/1999/xlink" xml:space="preserve" overflow="hidden"><defs><clipPath id="clip0"><rect x="760" y="495" width="1696" height="779"/></clipPath></defs><g clip-path="url(#clip0)" transform="translate(-760 -495)"><path d="M895.167 947.5C877.678 947.5 863.5 933.322 863.5 915.832L863.5 756.167C863.5 738.678 877.678 724.5 895.167 724.5L1021.83 724.5C1039.32 724.5 1053.5 738.678 1053.5 756.167L1053.5 915.832C1053.5 933.322 1039.32 947.5 1021.83 947.5Z" stroke="#D9D9D9" stroke-width="41.25" stroke-linecap="butt" stroke-linejoin="miter" stroke-miterlimit="8" stroke-opacity="1" fill="none" fill-rule="evenodd"/><path d="M991.097 833.856 973.762 885.267C971.369 892.365 963.674 896.18 956.575 893.786L862.142 861.945 888.144 784.828 982.578 816.669C989.676 819.063 993.49 826.757 991.097 833.856Z" stroke="#D9D9D9" stroke-width="10.3125" stroke-linecap="butt" stroke-linejoin="miter" stroke-miterlimit="8" stroke-opacity="1" fill="#D9D9D9" fill-rule="evenodd" fill-opacity="1"/><text fill="#D9D9D9" fill-opacity="1" font-family="Helvetica Neue,Helvetica Neue_MSFontService,sans-serif" font-style="normal" font-variant="normal" font-weight="700" font-stretch="normal" font-size="369" text-anchor="start" direction="ltr" writing-mode="lr-tb" unicode-bidi="normal" text-decoration="none" transform="matrix(1 0 0 1 1000.93 969)">NGS</text><text fill="#D9D9D9" fill-opacity="1" font-family="Helvetica Neue,Helvetica Neue_MSFontService,sans-serif" font-style="normal" font-variant="normal" font-weight="400" font-stretch="normal" font-size="303" text-anchor="start" direction="ltr" writing-mode="lr-tb" unicode-bidi="normal" text-decoration="none" transform="matrix(1 0 0 1 1794.42 969)">ase</text><text fill="#FFFFFF" fill-opacity="1" font-family="Helvetica Neue,Helvetica Neue_MSFontService,sans-serif" font-style="normal" font-variant="normal" font-weight="400" font-stretch="normal" font-size="50" text-anchor="start" direction="ltr" writing-mode="lr-tb" unicode-bidi="normal" text-decoration="none" transform="matrix(0.941506 0.336996 -0.336996 0.941506 846.355 830)">ATCG</text></g></svg>